<svg id="visual" viewBox="0 0 900 600" width="900" height="600" xmlns="http://www.w3.org/2000/svg" xmlns:xlink="http://www.w3.org/1999/xlink" version="1.1"><rect x="0" y="0" width="900" height="600" fill="#f6f6f4"></rect><path d="M0 428L21.5 435C43 442 86 456 128.8 469.2C171.7 482.3 214.3 494.7 257.2 501.5C300 508.3 343 509.7 385.8 502C428.7 494.3 471.3 477.7 514.2 471.2C557 464.7 600 468.3 642.8 463.7C685.7 459 728.3 446 771.2 444.3C814 442.7 857 452.3 878.5 457.2L900 462L900 601L878.5 601C857 601 814 601 771.2 601C728.3 601 685.7 601 642.8 601C600 601 557 601 514.2 601C471.3 601 428.7 601 385.8 601C343 601 300 601 257.2 601C214.3 601 171.7 601 128.8 601C86 601 43 601 21.5 601L0 601Z" fill="#4FACF7" stroke-linecap="round" stroke-linejoin="miter"></path></svg>